<svg width="36" height="36" viewBox="0 0 36 36" fill="none" xmlns="http://www.w3.org/2000/svg">
<circle cx="18" cy="18" r="18" fill="#F8E0E0"/>
<path fill-rule="evenodd" clip-rule="evenodd" d="M17.4485 9.03827C15.1769 9.2818 13.2018 10.4428 11.9439 12.2739C10.7066 14.0752 10.3887 16.3901 11.0956 18.4528C11.2642 18.9449 11.6277 19.6739 11.9227 20.1116L12.1517 20.4516L11.5313 21.617C11.19 22.2579 10.7041 23.1707 10.4516 23.6454C10.199 24.12 9.99578 24.5138 10.0001 24.5203C10.0065 24.5302 12.8252 24.6989 13.0238 24.7013C13.0604 24.7017 13.4784 25.1667 14.0453 25.8375C14.573 26.462 15.0159 26.985 15.0294 26.9997C15.0429 27.0145 15.4964 26.1944 16.0372 25.1773L17.0203 23.3281L17.2619 23.355C17.5742 23.3896 18.8609 23.3897 19.1732 23.355L19.4145 23.3282L20.3977 25.1774C20.9385 26.1945 21.392 27.0146 21.4054 26.9998C21.4188 26.985 21.8617 26.462 22.3896 25.8375C23.2149 24.8611 23.3632 24.7019 23.448 24.7011C23.665 24.6991 26.4271 24.5323 26.4347 24.5208C26.4392 24.514 26.2362 24.12 25.9837 23.6454C25.7311 23.1707 25.2452 22.2579 24.9039 21.617L24.2835 20.4516L24.5144 20.1089C24.9361 19.4832 25.2932 18.6901 25.4883 17.9461C25.7799 16.8341 25.779 15.571 25.4858 14.4517C24.9555 12.4268 23.5108 10.6994 21.5662 9.76491C20.3115 9.16199 18.7934 8.89406 17.4485 9.03827ZM18.8952 10.0927C20.8347 10.3059 22.506 11.2922 23.5754 12.8549C24.3314 13.9596 24.7193 15.4149 24.5946 16.6785C24.5068 17.5672 24.3262 18.1845 23.9311 18.9457C23.0422 20.6585 21.4581 21.8276 19.4629 22.2433C19.124 22.3139 18.976 22.3234 18.2176 22.3234C17.4592 22.3234 17.3112 22.3139 16.9723 22.2433C15.3356 21.9022 13.96 21.0415 12.9969 19.7554C12.7115 19.3744 12.2884 18.5727 12.1419 18.1351C11.446 16.0576 11.8922 13.8949 13.3648 12.208C14.6825 10.6983 16.8528 9.86824 18.8952 10.0927ZM17.8147 11.5728C17.1793 11.6245 16.6249 11.7723 16.0765 12.0362C14.7289 12.6848 13.7976 13.8407 13.4715 15.2695C13.3808 15.6666 13.3629 16.5103 13.4359 16.9388C13.6067 17.9403 14.1397 18.9026 14.9051 19.5909C15.5901 20.207 16.3467 20.5824 17.302 20.78C17.7805 20.879 18.7006 20.8715 19.2023 20.7643C20.1163 20.5692 20.8569 20.1968 21.5232 19.5973C22.2935 18.9041 22.828 17.9416 22.9994 16.9388C23.092 16.3971 23.0559 15.6218 22.9133 15.0888C22.4586 13.3889 21.1201 12.1027 19.3798 11.6933C19.0587 11.6178 18.8895 11.5957 18.3275 11.5561C18.2368 11.5497 18.0061 11.5572 17.8147 11.5728ZM18.5472 12.6258C20.2208 12.7851 21.5448 13.9293 21.8883 15.513C21.9483 15.7897 21.9574 15.9327 21.9411 16.3404C21.9155 16.9797 21.8152 17.3463 21.5132 17.9043C21.0545 18.7518 20.1525 19.4342 19.1516 19.691C18.8295 19.7737 18.7168 19.785 18.2176 19.785C17.7229 19.785 17.6046 19.7733 17.2976 19.6942C16.2015 19.4117 15.3554 18.7472 14.8653 17.7839C14.6004 17.263 14.5125 16.9197 14.4915 16.3228C14.4722 15.7753 14.5397 15.3766 14.733 14.8966C15.2286 13.6659 16.482 12.7533 17.8513 12.6262C18.0024 12.6121 18.1425 12.5988 18.1627 12.5966C18.1828 12.5944 18.3559 12.6075 18.5472 12.6258ZM18.7122 15.4072L17.9438 16.1465L17.5494 15.7685L17.1551 15.3906L16.7617 15.7687L16.3683 16.1468L17.1464 16.8948L17.9245 17.6427L19.0964 16.5166L20.2682 15.3906L19.8937 15.0293C19.6877 14.8306 19.5105 14.668 19.4998 14.668C19.4892 14.668 19.1348 15.0007 18.7122 15.4072ZM13.2089 21.5572C13.8775 22.1485 14.7971 22.6827 15.6538 22.9773C15.7848 23.0223 15.8978 23.0635 15.9051 23.0688C15.9195 23.0795 14.8955 25.0207 14.8536 25.0622C14.8393 25.0763 14.5611 24.773 14.2352 24.3882L13.6428 23.6885L13.3939 23.6676C13.257 23.6561 12.8318 23.6291 12.4491 23.6077C12.0663 23.5863 11.7495 23.5654 11.7449 23.5612C11.7348 23.552 12.9178 21.3222 12.9328 21.3222C12.9385 21.3222 13.0628 21.4279 13.2089 21.5572ZM24.1103 22.4466C24.434 23.0553 24.6946 23.5575 24.6894 23.5625C24.6841 23.5675 24.2636 23.5957 23.7548 23.6251C23.2459 23.6545 22.8149 23.6873 22.7969 23.698C22.779 23.7086 22.5042 24.0259 22.1862 24.4029C21.8683 24.78 21.5964 25.0768 21.5819 25.0625C21.5406 25.0217 20.5154 23.0795 20.5301 23.07C20.5374 23.0652 20.6917 23.0086 20.873 22.944C21.7002 22.6494 22.5414 22.1543 23.2315 21.5557C23.3805 21.4265 23.5068 21.3251 23.5121 21.3303C23.5175 21.3355 23.7867 21.8378 24.1103 22.4466Z" fill="#C60000"/>
</svg>
