<svg width="36" height="36" viewBox="0 0 36 36" fill="none" xmlns="http://www.w3.org/2000/svg">
<circle cx="18" cy="18" r="18" fill="#F8E0E0"/>
<path d="M20.7639 18.7388L20.7639 18.7388C20.7406 18.815 20.7337 18.9423 20.7455 19.0745C20.7575 19.2082 20.7865 19.3231 20.819 19.379L20.7326 19.4294L20.819 19.379C20.8804 19.4844 20.9266 19.538 20.9865 19.5749C21.0497 19.6138 21.1381 19.6404 21.2984 19.6685C23.149 19.9932 24.7187 21.2107 25.3164 22.8004C25.4848 23.2483 25.5522 23.5628 25.5885 24.066C25.6056 24.304 25.6208 24.4323 25.648 24.5193C25.6723 24.5971 25.7065 24.6428 25.7791 24.7107C26.1094 25.0193 26.6599 24.9342 26.8464 24.5714C26.8756 24.5147 26.8976 24.3958 26.8998 24.2166C26.902 24.0425 26.8856 23.8257 26.8496 23.5848C26.6481 22.2366 25.9859 21.0644 24.8914 20.125L24.9565 20.0491L24.8914 20.125C24.3278 19.6412 23.9092 19.3708 23.3088 19.1012C23.2262 19.0641 23.1529 19.0272 23.1011 18.9971C23.0761 18.9826 23.0522 18.9674 23.0346 18.9531C23.0273 18.9472 23.0128 18.9349 23.0017 18.9175C22.9964 18.9092 22.985 18.8892 22.9846 18.8612C22.984 18.8259 23.0012 18.7949 23.0271 18.776C23.0271 18.776 23.0271 18.776 23.0272 18.776L23.086 18.8568C23.0931 18.8517 23.1218 18.8312 23.1639 18.8013L20.7639 18.7388ZM20.7639 18.7388C20.7811 18.6825 20.8432 18.5672 20.9013 18.4905L20.8216 18.4302M20.7639 18.7388L20.8216 18.4302M20.2213 12.2147L20.271 12.1279L20.2213 12.2147ZM20.2213 12.2147L20.271 12.1279C20.0589 12.0064 19.9678 11.8137 19.9784 11.6323C19.989 11.4508 20.1023 11.2678 20.328 11.1684C20.4379 11.1201 20.4978 11.1009 20.5872 11.1C20.6851 11.099 20.8192 11.1199 21.0763 11.1672L21.0944 11.0688L21.0763 11.1672C22.1375 11.362 22.895 11.7174 23.6163 12.3548C24.4359 13.079 24.8821 13.9104 25.0054 14.9364C25.1661 16.2728 24.487 17.7414 23.3182 18.5692L23.376 18.6508L20.2213 12.2147ZM20.8216 18.4302L20.9013 18.4905C20.9528 18.4226 20.9769 18.3974 21.012 18.3768C21.0525 18.353 21.1121 18.3327 21.2446 18.2942C21.889 18.1068 22.2645 17.9026 22.7254 17.4866L22.6583 17.4123M20.8216 18.4302L22.6583 17.4123M12.2426 12.373L12.3102 12.4467C11.6467 13.0563 11.2631 13.7061 11.0621 14.5591L12.2426 12.373ZM12.2426 12.373L12.3102 12.4467C13.0087 11.805 13.9186 11.3693 14.9082 11.2048C15.0998 11.1729 15.354 11.1627 15.8529 11.1699C16.463 11.1787 16.567 11.1887 16.8834 11.262C17.7966 11.4735 18.5147 11.8373 19.1571 12.4113C19.8308 13.0134 20.2818 13.7808 20.4565 14.6187C20.5436 15.0363 20.5351 15.7476 20.4388 16.1496C20.1858 17.2057 19.5252 18.1313 18.5985 18.7267L18.5985 18.7267L18.4968 18.792L18.3418 18.8916L18.5098 18.9673L18.8002 19.098L18.8413 19.0068L18.8002 19.098C19.4397 19.3859 19.967 19.7353 20.5182 20.2373L20.5855 20.1633M12.2426 12.373L20.5855 20.1633M12.656 18.5464L12.656 18.5464C12.8127 18.66 12.9557 18.7639 12.9728 18.7767L12.9131 18.8568L12.9729 18.7767C13.0009 18.7976 13.0166 18.8312 13.0143 18.8665C13.0124 18.8937 13.0006 18.9128 12.9954 18.9204C12.9843 18.9368 12.97 18.9487 12.9622 18.955C12.9438 18.9697 12.9186 18.9857 12.8915 19.0014C12.8358 19.0339 12.7569 19.074 12.668 19.1146C12.0419 19.4002 11.485 19.773 10.9462 20.2679L10.8786 20.1942L10.9462 20.2679C9.91527 21.2148 9.28882 22.4233 9.12966 23.7687L9.03035 23.7569L9.12966 23.7687C9.1006 24.0142 9.09318 24.2009 9.10614 24.3431L12.656 18.5464ZM12.656 18.5464C11.8448 17.9585 11.24 17.0285 11.0437 16.0694L12.656 18.5464ZM20.5855 20.1633L20.5182 20.2373C21.2422 20.8965 21.721 21.5884 22.0506 22.4494C22.2029 22.847 22.3141 23.3116 22.3671 23.715C22.3936 23.9166 22.4052 24.1008 22.4006 24.2521C22.396 24.4071 22.3746 24.515 22.3446 24.5734C22.2059 24.8431 21.8136 24.9804 21.4911 24.851C21.3317 24.7871 21.249 24.7235 21.195 24.6211C21.1364 24.51 21.105 24.3418 21.0855 24.0492C21.025 23.1442 20.739 22.3837 20.1843 21.651C19.9077 21.2856 19.3443 20.7637 18.9348 20.4924C18.3345 20.0949 17.4923 19.773 16.6978 19.6354C16.4471 19.592 16.0746 19.5733 15.7061 19.5766C15.3375 19.5799 14.9638 19.6053 14.7106 19.6532C13.6085 19.8616 12.7682 20.2644 11.9719 20.9683C11.3426 21.5246 10.9553 22.0727 10.684 22.7955C10.511 23.2561 10.447 23.5617 10.4117 24.0907C10.3977 24.3003 10.3887 24.4057 10.3732 24.4758C10.3597 24.5369 10.342 24.5687 10.2989 24.6302C10.1735 24.8094 9.94351 24.9147 9.69747 24.8957C9.47806 24.8788 9.31316 24.7902 9.19573 24.6334L20.5855 20.1633ZM16.5628 12.4192L16.5854 12.3218C17.2278 12.471 17.7347 12.7301 18.2078 13.1528C18.6738 13.569 18.9753 14.0433 19.1399 14.6218C19.1903 14.7991 19.2106 15.0843 19.2069 15.3608C19.2031 15.6374 19.1751 15.9236 19.1201 16.1032C18.7773 17.222 17.7866 18.0725 16.5213 18.3522L16.5628 12.4192ZM16.5628 12.4192L16.5854 12.3218C16.4217 12.2838 16.157 12.2581 15.8966 12.2471C15.636 12.2361 15.3682 12.2395 15.1976 12.2632L15.1975 12.2632L16.5628 12.4192ZM22.6583 17.4123L22.7254 17.4866C23.3433 16.9287 23.6616 16.2925 23.7134 15.5034C23.784 14.4284 23.2402 13.4311 22.2523 12.7981C21.8373 12.5322 21.3157 12.3563 20.5915 12.2305L22.6583 17.4123ZM15.7312 18.4101C15.4298 18.4101 15.1201 18.3917 14.941 18.3521C14.941 18.3521 14.941 18.3521 14.941 18.3521L15.7312 18.4101ZM15.7312 18.4101C16.0326 18.4101 16.3423 18.3917 16.5213 18.3522L15.7312 18.4101ZM23.1449 18.9377L23.145 18.9376L23.1449 18.9377Z" fill="#C60000" stroke="#F8E0E0" stroke-width="0.2"/>
</svg>
